PathFileType	4	(X/Y/Z)	C:\Users\°ÂÌØÂü\Desktop\20210112\bx_n_10_1802-Unnamed.trc
DataRate	CameraRate	NumFrames	NumMarkers	Units	OrigDataRate	OrigDataStartFrame	OrigNumFrames
50.00	50.00	       8	0	mm	50.00	260	       518
Frame#	Time	
		

260	5.180	-722.01270	257.89981	748.81995	-710.08868	151.83287	216.53778	-843.65796	79.13145	1055.10742	-724.00806	270.68173	880.33862	-616.52722	-27.77923	813.50824	-725.85126	-40.37989	617.34033	-672.50012	172.87674	157.53510	-647.51276	226.41682	1075.38879	-730.85699	-35.75990	569.31848	-667.48993	53.19062	162.15063				-773.63965	247.61665	504.37982	-632.01221	84.46124	1360.53394	-786.43707	47.89835	174.31769	-736.10095	237.19850	580.03296	-653.24207	-70.52982	158.55255	-742.27777	238.62476	644.12445	-767.68152	222.97572	205.59734	-610.48193	-79.17526	155.03938	-882.44537	296.14813	144.74539	-717.96918	-86.16450	1549.94189	-595.34369	20.78080	171.35577	-677.53827	198.80885	539.42578	-590.64917	220.60789	174.31400	-660.77008	298.49420	157.45441	-623.93152	306.50061	158.48607	-555.41425	256.94629	165.34509	-528.11023	304.21655	146.67133	-739.72028	92.60683	1847.14551	-736.46552	254.27496	1555.55432	-517.99719	-72.84180	143.25821	-550.37988	-33.66335	163.90221	-793.19843	174.48366	184.39551	-673.40515	6.25840	522.89294	-773.72601	-41.31164	488.47238	-760.81500	-13.55620	205.71770	-876.10748	-78.72702	141.65752	-614.07904	208.17238	827.37506	-700.30743	-84.22288	877.46875	-716.84967	-68.73885	761.92792	-712.10779	70.09016	217.65988	-694.45917	66.95879	578.70435	-689.59711	136.95731	582.99756	
261	5.200	-722.48663	257.37347	748.68689	-710.00586	151.79305	216.47331	-844.12927	78.98501	1055.19299	-724.89728	270.31769	880.14807	-616.79419	-28.29560	813.50574	-725.99268	-40.45321	617.43280	-672.23187	172.76196	158.24022	-648.15442	225.45747	1075.07043	-730.89789	-35.83855	569.26776	-667.67578	53.26125	162.10291				-773.71991	247.12776	504.19781	-631.54559	83.34904	1360.13135	-786.47345	47.79059	174.47478	-736.09619	236.85841	579.83539	-653.17914	-70.56238	158.57777	-742.46002	238.40498	644.07800	-767.78308	223.01512	205.63965	-610.55261	-78.85056	154.95164	-882.39606	296.09891	144.73637	-717.38361	-86.76585	1549.90845	-595.48755	20.65497	171.29596	-677.86505	198.55646	539.23450	-590.71777	220.56853	174.15741	-660.72058	298.47433	157.42316	-623.93152	306.50061	158.48607	-555.41425	256.94629	165.34509	-528.14728	304.18329	146.80435	-737.63239	91.70834	1847.54565	-735.14789	253.51898	1555.61584	-517.94012	-72.68266	143.21944	-550.43463	-33.65414	163.76257	-793.19843	174.48366	184.39551	-672.73566	5.77763	523.49316	-773.50726	-41.77918	488.61230	-760.81500	-13.55620	205.71770	-876.13416	-78.66221	141.70390	-614.55701	207.76405	827.49133	-700.95441	-84.63641	877.55072	-717.61163	-69.13821	762.03607	-712.01257	70.09205	217.89598	-694.09381	66.86900	578.70386	-689.79407	136.91417	583.00763	
262	5.220	-722.96143	257.45300	749.03143	-710.08868	151.83287	216.53778	-845.16504	78.50169	1055.55383	-725.49316	270.04382	880.21704	-617.53113	-28.90200	813.52087	-725.89154	-40.75999	617.32654	-672.48376	173.19569	157.59938	-648.97113	225.08862	1075.17798	-730.92383	-36.02592	569.15881	-667.67157	53.22157	162.16197				-773.84186	246.97551	504.33115	-631.35779	82.94765	1359.95349	-786.43817	47.73883	174.46950	-736.18286	236.66295	579.88214	-653.18640	-70.35092	158.47490	-742.63574	237.94328	644.24707	-767.77728	223.12354	205.71048	-610.45648	-79.07069	155.20541	-882.38171	296.15680	144.80455	-716.66669	-87.35867	1549.93005	-595.37610	20.72955	171.34410	-678.14294	198.12604	539.13062	-590.80536	220.58240	174.06923	-660.78644	298.51492	157.51491	-623.84296	306.48465	158.57147	-555.51721	256.84381	165.43524	-528.15491	304.34509	146.75124	-735.35785	90.94353	1847.58545	-734.48352	252.95432	1555.69080	-518.01404	-73.09077	143.24335	-550.45941	-33.44626	163.83679	-793.32941	174.50864	184.34753	-672.78912	5.73132	523.36267	-773.25006	-41.93243	488.46201	-760.80951	-13.61196	205.65660	-876.13416	-78.66221	141.70390	-615.26636	207.39214	827.44708	-702.01556	-85.36661	877.70795	-717.82275	-69.04527	761.71704	-711.94867	69.74179	217.83499	-693.87250	66.71149	578.64771	-689.91687	136.69278	582.92554	
263	5.240	-723.40204	257.26312	748.78998	-710.08868	151.83287	216.53778	-846.26971	77.87169	1055.63867	-726.38379	269.27350	879.90021	-618.19806	-29.40270	813.64972	-725.90192	-40.98003	617.26190	-672.76587	172.94679	157.78969	-649.66919	224.35408	1074.94043	-730.83228	-36.42289	569.12207	-667.62854	53.16041	161.91200				-773.94305	246.74829	504.13440	-630.90997	82.46217	1359.80127	-786.42291	47.87240	174.37714	-736.64978	236.22711	579.73376	-653.09601	-70.37276	158.59160	-742.76599	237.69974	644.21069	-767.74707	223.01993	205.45740	-610.52399	-79.00181	155.06882	-882.42584	296.01208	144.62569	-715.87988	-88.21330	1549.88342	-595.35297	20.86364	171.43321	-678.11896	198.04077	539.22034	-590.74072	220.64311	174.31360	-660.74255	298.34225	157.61908	-623.84296	306.48465	158.57147	-555.49628	256.88657	165.31343	-528.19720	304.25613	146.56464	-733.21826	90.29247	1847.63342	-733.39453	252.31789	1555.76807	-517.85974	-73.07893	143.17383	-550.42517	-33.50537	163.84084	-793.37903	174.47658	184.34074	-672.64587	5.80329	523.43262	-773.09692	-41.88979	488.33032	-760.75403	-13.71520	205.68394	-876.13416	-78.66221	141.70390	-615.97522	206.74446	827.74182	-702.27527	-85.65314	877.55927	-718.32172	-70.01638	762.13019	-711.87036	69.73867	218.02881	-693.53162	66.34080	578.71051	-690.18158	136.28046	582.86676	
264	5.260	-724.21259	256.35760	748.86115	-710.03027	151.83688	216.41159	-846.75525	77.35558	1055.69116	-727.22931	268.51633	879.70245	-618.73975	-29.83004	813.90051	-726.11542	-41.18888	616.80127	-672.52002	173.06998	157.82501	-650.70117	224.06937	1075.26221	-730.68188	-36.51885	569.00952	-667.53571	53.10025	162.06052				-773.94598	246.63354	504.02829	-630.54877	81.87710	1359.39722	-786.39746	47.78876	174.55473	-736.77533	235.90468	579.73907	-653.24207	-70.52982	158.55255	-743.03510	237.52486	644.20166	-767.98096	223.04359	205.92534	-610.47656	-79.01395	154.83138	-882.50006	296.18253	144.69447	-715.02014	-88.52526	1549.82361	-595.37610	20.72955	171.34410	-678.39636	197.82654	539.25195	-590.76300	220.51746	174.24266	-660.70142	298.42297	157.50473	-623.78748	306.50262	158.64108	-555.46490	256.88879	165.43376	-528.15210	304.14432	146.62630	-730.70355	89.40442	1847.99377	-732.64545	251.60263	1555.89697	-517.95282	-73.07230	143.02869	-550.44946	-33.53315	163.69943	-793.30182	174.56519	184.40797	-672.50696	5.50803	523.22870	-773.07373	-42.14152	488.26489	-760.80951	-13.61196	205.65660	-876.15240	-78.70512	141.63461	-616.66565	206.49854	827.68372	-703.15527	-85.99874	877.27301	-718.76404	-70.46589	762.08850	-711.87036	69.73867	218.02881	-693.36652	65.67712	578.86725	-690.29865	136.04987	582.83124	
265	5.280	-724.54712	255.98949	748.87225	-709.85150	151.94463	216.68536	-847.51556	76.54546	1055.80176	-728.00848	268.25735	880.30707	-619.20557	-30.29337	814.11597	-726.00397	-41.31905	617.02985	-672.60760	173.13187	157.49022	-651.47791	223.89226	1075.26074	-730.79565	-36.55928	568.75293	-667.62909	53.12269	162.20064				-774.15515	246.40292	503.94540	-630.34210	80.96941	1359.08948	-786.87573	47.53363	174.57613	-736.96667	235.40788	579.54462	-653.18787	-70.43177	158.61501	-743.34155	237.26514	644.16022	-767.84113	223.00824	205.53915	-610.65741	-79.05933	155.22496	-882.42657	296.15445	144.70587	-713.86658	-89.29188	1549.58032	-595.39410	20.78873	171.43576	-678.44318	197.68806	539.47681	-590.81873	220.61580	174.24519	-660.78308	298.57770	157.56857	-623.84296	306.48465	158.57147	-555.51721	256.84381	165.43524	-528.10242	304.12094	146.80693	-728.26727	88.65604	1847.84937	-731.32428	251.17317	1555.71130	-517.97479	-72.99015	142.94498	-550.48871	-33.66533	163.83360	-793.45313	174.72971	184.36067	-672.45007	5.41069	523.33362	-773.00372	-42.20769	488.26328	-760.74493	-13.80814	205.59419	-876.13898	-78.71215	141.65431	-617.27161	206.20409	828.13892	-703.88745	-86.62186	877.33740	-719.35895	-70.51300	761.68365	-711.93591	69.63198	217.99896	-693.38379	65.43839	578.90601	-690.12732	135.85585	582.93384	
266	5.300	-724.65155	256.03247	748.95984	-709.92700	151.86504	216.40947	-848.70050	76.20209	1056.14148	-728.85742	267.70435	880.08142	-619.66486	-30.53432	814.03613	-726.03333	-41.78416	616.75983	-672.54510	172.95753	157.93939	-652.53149	222.52580	1074.74072	-730.77106	-36.90028	568.94745	-667.94910	53.36309	162.17351				-774.22772	246.01669	503.94513	-629.91736	80.31050	1358.95825	-786.86597	47.54814	174.60054	-737.16284	235.33403	579.66431	-653.23193	-70.38626	158.46796	-743.56763	236.76521	643.82446	-767.86725	223.00797	205.70990	-610.49707	-79.15862	155.01089	-882.44165	296.28186	144.84575	-712.93359	-89.95963	1549.71228	-595.44678	20.74706	171.56551	-678.54828	197.54475	539.50171	-590.99194	220.38577	174.15678	-660.68158	298.45145	157.46265	-623.87604	306.51859	158.55568	-555.62726	256.84219	165.60168	-528.08997	304.30142	146.99597	-725.61346	87.72922	1847.74329	-730.52124	250.25302	1555.86572	-517.98560	-72.86588	143.34457	-550.38867	-33.48783	163.90610	-793.48242	174.52989	184.32893	-672.65179	5.29735	522.96600	-773.15680	-42.77585	488.12204	-760.80951	-13.61196	205.65660	-876.13416	-78.66221	141.70390	-617.91034	205.34143	828.17426	-704.89197	-87.46378	877.20850	-719.82062	-70.89570	761.35309	-711.93591	69.63198	217.99896	-693.27484	65.33765	578.82953	-690.31653	135.62729	582.78790	
267	5.320	-725.29327	255.90508	749.13885	-709.85742	151.79167	216.45161	-849.31561	75.73421	1055.79932	-729.53186	267.20731	880.14960	-620.52808	-31.10529	814.26221	-726.40326	-41.95452	616.29553	-672.70313	172.90959	157.68990	-652.95300	222.26903	1075.00818	-730.59033	-36.94556	568.80823	-667.81219	53.13616	162.01584				-774.19397	245.92323	504.04779	-629.77838	79.72900	1358.47693	-786.86597	47.54814	174.60054	-736.96832	234.99422	579.49481	-653.17767	-70.32864	158.54356	-743.90759	236.39400	643.76428	-767.86047	223.01161	205.72034	-610.44513	-79.12787	155.19635	-882.48492	296.28201	144.80209	-711.74988	-90.98885	1549.66858	-595.33496	20.80445	171.34154	-678.18945	197.22139	539.56897	-590.97003	220.56772	174.36696	-660.80939	298.46021	157.59334	-623.84296	306.48465	158.57147	-555.70526	256.72961	165.44316	-528.17462	304.21417	146.73236	-723.24817	87.45653	1848.00317	-729.42310	249.54398	1555.94250	-517.96741	-72.71018	143.28145	-550.49652	-33.53276	163.76633	-793.51007	174.50154	184.29277	-672.57990	4.60613	522.88507	-773.16718	-42.81948	488.09998	-760.75317	-13.79581	205.44937	-876.19366	-78.71379	141.54773	-618.65271	204.89824	828.28876	-705.56378	-87.79729	877.22760	-720.47974	-71.03491	761.16296	-711.81512	69.56459	217.82552	-693.14478	65.11424	579.00061	-690.00024	134.97142	582.85492	
